<svg width="56" height="56" viewBox="0 0 48 48" fill="none">
    <circle cx="24" cy="24" r="22.5" fill="#0a0a0b" stroke="#c4f24a" stroke-width="0.8"></circle>
    <g transform="translate(1.5 1.5) scale(0.0225)">
        <path d="M787.5 1595.83c-325-116.66-491.67-479.16-370.83-800 62.5-175 200-308.33 370.83-370.83 16.67-8.33 25-20.83 25-41.67V325c0-16.67-8.33-29.17-25-33.33-4.17 0-12.5 0-16.67 4.16-395.83 125-612.5 545.84-487.5 941.67 75 233.33 254.17 412.5 487.5 487.5 16.67 8.33 33.34 0 37.5-16.67 4.17-4.16 4.17-8.33 4.17-16.66v-58.34c0-12.5-12.5-29.16-25-37.5zM1229.17 295.83c-16.67-8.33-33.34 0-37.5 16.67-4.17 4.17-4.17 8.33-4.17 16.67v58.33c0 16.67 12.5 33.33 25 41.67 325 116.66 491.67 479.16 370.83 800-62.5 175-200 308.33-370.83 370.83-16.67 8.33-25 20.83-25 41.67V1700c0 16.67 8.33 29.17 25 33.33 4.17 0 12.5 0 16.67-4.16 395.83-125 612.5-545.84 487.5-941.67-75-237.5-258.34-416.67-487.5-491.67z" fill="#c4f24a"></path>
    </g>
    <text x="24" y="24" text-anchor="middle" dominant-baseline="central" fill="#c4f24a" font-size="17" font-weight="700" letter-spacing="-0.04em" font-family="sans-serif">ar</text>
</svg>